<svg xmlns="http://www.w3.org/2000/svg" viewBox="0 0 297.81 297.81"><defs><style>.cls-1{fill:#fff;stroke:#fff;}.cls-1,.cls-2,.cls-3{stroke-miterlimit:10;}.cls-2,.cls-3{fill:#f64747;stroke:#f64747;}.cls-3{stroke-width:10px;}</style></defs><title>Asset 1</title><g id="Layer_2" data-name="Layer 2"><g id="Layer_1-2" data-name="Layer 1"><path class="cls-1" d="M164.21 157.28l32.1-32.1 31.2 31.2-8.95 8.95-10.4-10.39-11.5 11.5-13.17-13.18-11.65 11.65-7.63-7.63z"/><g id="Symbol"><path class="cls-2" d="M148.91 297.11L.71 148.91 148.91.71l148.2 148.2zm-128-148.2l128 128 128-128-128-128z"/><path class="cls-2" d="M132.61 188.71l-52.7-52.6-40.9 41-3.4-3.4 44.3-44.4 52.7 52.7 63.7-63.8 60.7 60.7-3.4 3.4-57.3-57.3-63.7 63.7zM130.31 114.71A17.7 17.7 0 1 1 148 97a17.67 17.67 0 0 1-17.69 17.71zm0-30.6A12.9 12.9 0 1 0 143.21 97a12.93 12.93 0 0 0-12.9-12.89z"/><path class="cls-2" d="M218.61 171.91l-11.9-11.9-11.5 11.5-11.7-11.7-11.7 11.7-12.7-12.7 3.4-3.4 9.3 9.3 11.7-11.6 11.7 11.7 11.5-11.5 11.9 11.9 10.6-10.7 3.4 3.4-14 14zM91.11 171.91l-11.9-11.9-11.5 11.5-13.3-13.4 3.3-3.3 10 10 11.5-11.5 11.9 11.9 10.7-10.7 3.3 3.4-14 14z"/></g><path class="cls-1" d="M60.91 156.21l18.86-18.87 19.57 19.57-8.26 8.27-11.87-11.87-11.5 11.5-6.8-8.6z"/></g></g></svg>