<svg xmlns="http://www.w3.org/2000/svg" viewBox="0 0 511 511" width="512" height="512"><g fill="#FFF"><path d="M39.5 103c1.97 0 3.91-.8 5.3-2.2 1.4-1.39 2.2-3.33 2.2-5.3s-.8-3.91-2.2-5.3c-1.39-1.4-3.33-2.2-5.3-2.2-1.97 0-3.91.8-5.3 2.2-1.4 1.39-2.2 3.33-2.2 5.3s.8 3.91 2.2 5.3c1.39 1.4 3.33 2.2 5.3 2.2zM63.5 103c1.97 0 3.91-.8 5.3-2.2 1.4-1.39 2.2-3.33 2.2-5.3s-.8-3.91-2.2-5.3c-1.39-1.4-3.33-2.2-5.3-2.2-1.97 0-3.91.8-5.3 2.2-1.4 1.39-2.2 3.33-2.2 5.3s.8 3.91 2.2 5.3c1.39 1.4 3.33 2.2 5.3 2.2zM87.5 103c1.97 0 3.91-.8 5.3-2.2 1.4-1.39 2.2-3.33 2.2-5.3s-.8-3.91-2.2-5.3c-1.39-1.4-3.33-2.2-5.3-2.2-1.97 0-3.91.8-5.3 2.2-1.4 1.39-2.2 3.33-2.2 5.3 0 1.98.8 3.91 2.2 5.3 1.39 1.4 3.33 2.2 5.3 2.2zM455.5 103h16c4.142 0 7.5-3.358 7.5-7.5s-3.358-7.5-7.5-7.5h-16c-4.142 0-7.5 3.358-7.5 7.5s3.358 7.5 7.5 7.5zM439.5 312h-80c-12.958 0-23.5 10.542-23.5 23.5v56c0 12.958 10.542 23.5 23.5 23.5h80c12.958 0 23.5-10.542 23.5-23.5v-56c0-12.958-10.542-23.5-23.5-23.5zm8.5 79.5c0 4.687-3.813 8.5-8.5 8.5h-80c-4.687 0-8.5-3.813-8.5-8.5v-56c0-4.687 3.813-8.5 8.5-8.5h80c4.687 0 8.5 3.813 8.5 8.5v56zM359.5 231c12.958 0 23.5-10.542 23.5-23.5S372.458 184 359.5 184 336 194.542 336 207.5s10.542 23.5 23.5 23.5zm0-32c4.687 0 8.5 3.813 8.5 8.5s-3.813 8.5-8.5 8.5-8.5-3.813-8.5-8.5 3.813-8.5 8.5-8.5z"/><path d="M423.5 344h-48c-4.142 0-7.5 3.358-7.5 7.5s3.358 7.5 7.5 7.5h48c4.142 0 7.5-3.358 7.5-7.5s-3.358-7.5-7.5-7.5zM399.5 368h-24c-4.142 0-7.5 3.358-7.5 7.5s3.358 7.5 7.5 7.5h24c4.142 0 7.5-3.358 7.5-7.5s-3.358-7.5-7.5-7.5zM39.5 175h16c4.142 0 7.5-3.358 7.5-7.5s-3.358-7.5-7.5-7.5h-16c-4.142 0-7.5 3.358-7.5 7.5s3.358 7.5 7.5 7.5zM39.5 215h16c4.142 0 7.5-3.358 7.5-7.5s-3.358-7.5-7.5-7.5h-16c-4.142 0-7.5 3.358-7.5 7.5s3.358 7.5 7.5 7.5zM63.5 240h-8c-4.142 0-7.5 3.358-7.5 7.5s3.358 7.5 7.5 7.5h8c4.142 0 7.5-3.358 7.5-7.5s-3.358-7.5-7.5-7.5zM39.5 295h16c4.142 0 7.5-3.358 7.5-7.5s-3.358-7.5-7.5-7.5h-16c-4.142 0-7.5 3.358-7.5 7.5s3.358 7.5 7.5 7.5zM87.5 175h32c4.142 0 7.5-3.358 7.5-7.5s-3.358-7.5-7.5-7.5h-32c-4.142 0-7.5 3.358-7.5 7.5s3.358 7.5 7.5 7.5zM87.5 295h64c4.142 0 7.5-3.358 7.5-7.5s-3.358-7.5-7.5-7.5h-64c-4.142 0-7.5 3.358-7.5 7.5s3.358 7.5 7.5 7.5zM87.5 215h80c4.142 0 7.5-3.358 7.5-7.5s-3.358-7.5-7.5-7.5h-80c-4.142 0-7.5 3.358-7.5 7.5s3.358 7.5 7.5 7.5zM95.5 240c-4.142 0-7.5 3.358-7.5 7.5s3.358 7.5 7.5 7.5h32c4.142 0 7.5-3.358 7.5-7.5s-3.358-7.5-7.5-7.5h-32zM191 247.5c0-4.142-3.358-7.5-7.5-7.5h-24c-4.142 0-7.5 3.358-7.5 7.5s3.358 7.5 7.5 7.5h24c4.142 0 7.5-3.358 7.5-7.5zM215.5 240c-1.97 0-3.91.8-5.3 2.2-1.4 1.39-2.2 3.33-2.2 5.3s.8 3.91 2.2 5.3c1.39 1.4 3.33 2.2 5.3 2.2 1.97 0 3.91-.8 5.3-2.2 1.4-1.39 2.2-3.33 2.2-5.3s-.8-3.91-2.2-5.3c-1.39-1.4-3.33-2.2-5.3-2.2zM194.2 322.2c-1.4 1.39-2.2 3.33-2.2 5.3s.8 3.91 2.2 5.3c1.39 1.4 3.33 2.2 5.3 2.2 1.97 0 3.91-.8 5.3-2.2 1.4-1.39 2.2-3.33 2.2-5.3s-.8-3.91-2.2-5.3c-1.39-1.4-3.32-2.2-5.3-2.2s-3.91.8-5.3 2.2zM63.5 320h-8c-4.142 0-7.5 3.358-7.5 7.5s3.358 7.5 7.5 7.5h8c4.142 0 7.5-3.358 7.5-7.5s-3.358-7.5-7.5-7.5zM175 327.5c0-4.142-3.358-7.5-7.5-7.5h-72c-4.142 0-7.5 3.358-7.5 7.5s3.358 7.5 7.5 7.5h72c4.142 0 7.5-3.358 7.5-7.5zM63.5 360h-8c-4.142 0-7.5 3.358-7.5 7.5s3.358 7.5 7.5 7.5h8c4.142 0 7.5-3.358 7.5-7.5s-3.358-7.5-7.5-7.5zM95.5 360c-4.142 0-7.5 3.358-7.5 7.5s3.358 7.5 7.5 7.5h48c4.142 0 7.5-3.358 7.5-7.5s-3.358-7.5-7.5-7.5h-48zM207 367.5c0-4.142-3.358-7.5-7.5-7.5h-24c-4.142 0-7.5 3.358-7.5 7.5s3.358 7.5 7.5 7.5h24c4.142 0 7.5-3.358 7.5-7.5zM55.5 400h-16c-4.142 0-7.5 3.358-7.5 7.5s3.358 7.5 7.5 7.5h16c4.142 0 7.5-3.358 7.5-7.5s-3.358-7.5-7.5-7.5zM111.5 400h-24c-4.142 0-7.5 3.358-7.5 7.5s3.358 7.5 7.5 7.5h24c4.142 0 7.5-3.358 7.5-7.5s-3.358-7.5-7.5-7.5zM223.5 400h-16c-4.142 0-7.5 3.358-7.5 7.5s3.358 7.5 7.5 7.5h16c4.142 0 7.5-3.358 7.5-7.5s-3.358-7.5-7.5-7.5zM151.5 175h64c4.142 0 7.5-3.358 7.5-7.5s-3.358-7.5-7.5-7.5h-64c-4.142 0-7.5 3.358-7.5 7.5s3.358 7.5 7.5 7.5zM175.5 400h-32c-4.142 0-7.5 3.358-7.5 7.5s3.358 7.5 7.5 7.5h32c4.142 0 7.5-3.358 7.5-7.5s-3.358-7.5-7.5-7.5z"/><path d="M471.5 56H263V39.5c0-4.142-3.358-7.5-7.5-7.5s-7.5 3.358-7.5 7.5V56H39.5C17.72 56 0 73.72 0 95.5v320C0 437.28 17.72 455 39.5 455H248v16.5c0 4.142 3.358 7.5 7.5 7.5s7.5-3.358 7.5-7.5V455h208.5c21.78 0 39.5-17.72 39.5-39.5v-320c0-21.78-17.72-39.5-39.5-39.5zm0 15c13.51 0 24.5 10.99 24.5 24.5V120H263v-17h160.5c4.142 0 7.5-3.358 7.5-7.5s-3.358-7.5-7.5-7.5H263V71h208.5zm-432 0H248v17H119.5c-4.142 0-7.5 3.358-7.5 7.5s3.358 7.5 7.5 7.5H248v17H15V95.5C15 81.99 25.99 71 39.5 71zm0 369C25.99 440 15 429.01 15 415.5V135h233v305H39.5zM263 327h32.5c4.687 0 8.5 3.813 8.5 8.5v56c0 4.687-3.813 8.5-8.5 8.5H263v-73zm0-52.394l48.5-48.5 42.697 42.697c2.93 2.93 7.678 2.93 10.606 0L448 185.606V271.5c0 4.687-3.813 8.5-8.5 8.5H263v-5.394zm96.5-21.712l-42.697-42.697c-2.93-2.93-7.678-2.93-10.606 0L263 253.394V175h174.394L359.5 252.894zM471.5 440H263v-25h32.5c12.958 0 23.5-10.542 23.5-23.5v-56c0-12.958-10.542-23.5-23.5-23.5H263v-17h176.5c12.958 0 23.5-10.542 23.5-23.5v-88c0-12.958-10.542-23.5-23.5-23.5H263v-25h233v280.5c0 13.51-10.99 24.5-24.5 24.5z"/></g></svg>