<svg xmlns="http://www.w3.org/2000/svg" viewBox="0 0 297.81 297.81"><defs><style>.cls-1{fill:#fff;stroke:#fff;}.cls-1,.cls-2,.cls-3{stroke-miterlimit:10;}.cls-2,.cls-3{fill:#f64747;stroke:#f64747;}.cls-3{stroke-width:10px;}</style></defs><title>Asset 1</title><g id="Layer_2" data-name="Layer 2"><g id="Layer_1-2" data-name="Layer 1"><polygon class="cls-1" points="164.21 157.28 196.31 125.18 227.51 156.38 218.56 165.33 208.16 154.94 196.66 166.44 183.49 153.26 171.84 164.91 164.21 157.28"/><g id="Symbol"><path class="cls-2" d="M148.91,297.11.71,148.91,148.91.71l148.2,148.2Zm-128-148.2,128,128,128-128-128-128Z"/><polygon class="cls-2" points="132.61 188.71 79.91 136.11 39.01 177.11 35.61 173.71 79.91 129.31 132.61 182.01 196.31 118.21 257.01 178.91 253.61 182.31 196.31 125.01 132.61 188.71"/><path class="cls-2" d="M130.31,114.71A17.7,17.7,0,1,1,148,97,17.67,17.67,0,0,1,130.31,114.71Zm0-30.6A12.9,12.9,0,1,0,143.21,97,12.93,12.93,0,0,0,130.31,84.11Z"/><polygon class="cls-2" points="218.61 171.91 206.71 160.01 195.21 171.51 183.51 159.81 171.81 171.51 159.11 158.81 162.51 155.41 171.81 164.71 183.51 153.11 195.21 164.81 206.71 153.31 218.61 165.21 229.21 154.51 232.61 157.91 218.61 171.91"/><polygon class="cls-2" points="91.11 171.91 79.21 160.01 67.71 171.51 54.41 158.11 57.71 154.81 67.71 164.81 79.21 153.31 91.11 165.21 101.81 154.51 105.11 157.91 91.11 171.91"/><path class="cls-3" d="M103.51,156.21"/></g><polygon class="cls-1" points="60.91 156.21 79.77 137.34 99.34 156.91 91.08 165.18 79.21 153.31 67.71 164.81 60.91 156.21"/></g></g></svg>